<?xml version="1.0" standalone="no"?>
<!DOCTYPE svg PUBLIC "-//W3C//DTD SVG 20010904//EN"
 "http://www.w3.org/TR/2001/REC-SVG-20010904/DTD/svg10.dtd">
<svg version="1.0" xmlns="http://www.w3.org/2000/svg"
 width="400.000000pt" height="304.000000pt" viewBox="0 0 400.000000 304.000000"
 preserveAspectRatio="xMidYMid meet">

<g transform="translate(0.000000,304.000000) scale(0.100000,-0.100000)"
fill="#000000" stroke="none">
<path d="M1825 2715 c-253 -39 -473 -147 -652 -317 -113 -108 -192 -216 -259
-352 -162 -334 -162 -718 0 -1052 67 -136 146 -244 259 -352 460 -439 1194
-439 1654 0 113 109 192 217 258 352 165 339 165 713 0 1052 -122 252 -321
448 -577 569 -209 99 -459 136 -683 100z m-566 -954 c23 -6 20 -10 -43 -60
-67 -53 -86 -86 -24 -40 47 35 118 80 118 75 0 -2 -32 -30 -72 -62 -40 -33
-79 -65 -88 -73 -21 -19 36 15 91 54 49 35 89 58 89 52 0 -2 -33 -29 -73 -60
-113 -86 -123 -108 -17 -35 106 72 120 81 120 75 0 -3 -35 -32 -77 -65 -119
-91 -140 -123 -33 -47 101 71 147 99 120 73 -8 -8 -59 -50 -112 -92 -54 -43
-98 -80 -98 -82 0 -7 14 2 110 71 175 126 179 120 10 -16 -57 -46 -111 -90
-120 -98 -32 -28 49 25 148 97 57 41 105 73 107 70 2 -2 -54 -50 -125 -107
-72 -56 -130 -105 -130 -107 0 -6 103 63 197 133 40 29 75 53 78 53 10 0 4
-68 -10 -118 -62 -208 -357 -233 -456 -39 -62 120 -14 264 110 329 54 28 122
36 180 19z m561 -116 l0 -35 -125 0 -125 0 0 -35 0 -35 125 0 125 0 0 -30 0
-30 -125 0 -125 0 0 -60 0 -60 -40 0 -40 0 0 135 c0 131 1 137 25 160 23 24
29 25 165 25 l140 0 0 -35z m98 -127 l-3 -163 -37 -3 -38 -3 0 165 0 166 40 0
40 0 -2 -162z m205 0 c48 -88 86 -163 84 -165 -13 -13 -63 52 -113 149 l-59
113 -3 -132 -3 -133 -34 0 -35 0 0 165 0 165 38 0 37 0 88 -162z m42 24 c33
-62 63 -112 68 -112 4 0 7 56 7 125 l0 125 35 0 35 0 0 -165 0 -165 -39 0 -39
0 -86 160 c-47 87 -86 162 -86 166 0 3 10 0 22 -8 13 -9 50 -65 83 -126z m495
103 l0 -35 -120 0 -120 0 0 -30 0 -30 120 0 120 0 0 -30 0 -30 -120 0 -120 0
0 -35 0 -35 120 0 120 0 0 -36 0 -36 -135 4 c-180 4 -180 4 -180 162 0 160 5
164 193 165 l122 1 0 -35z m338 27 c39 -4 42 -6 42 -33 l0 -29 -70 0 -70 0 0
-130 0 -130 -40 0 -40 0 0 130 0 130 -70 0 -70 0 0 35 0 36 138 -2 c75 -1 156
-4 180 -7z"/>
<path d="M817 2328 c-71 -95 -170 -311 -202 -443 -80 -323 -55 -636 74 -934
40 -93 139 -261 154 -261 9 0 8 2 -47 84 -168 253 -247 622 -201 941 32 226
94 385 248 632 16 26 -3 12 -26 -19z"/>
<path d="M3181 2283 c91 -139 158 -305 196 -483 26 -121 26 -441 0 -555 -42
-185 -113 -358 -202 -489 -25 -37 -44 -71 -41 -74 7 -6 2 -13 60 75 161 247
249 603 217 885 -23 202 -84 415 -158 548 -38 68 -107 170 -115 170 -4 0 15
-35 43 -77z"/>
</g>
</svg>
